<?xml version="1.0" encoding="UTF-8" standalone="no"?>
<!DOCTYPE svg PUBLIC "-//W3C//DTD SVG 1.1//EN" "http://www.w3.org/Graphics/SVG/1.1/DTD/svg11.dtd">
<svg version="1.1" xmlns="http://www.w3.org/2000/svg" xmlns:xlink="http://www.w3.org/1999/xlink" preserveAspectRatio="xMidYMid meet" viewBox="0 0 640 640" width="640" height="640"><defs><path d="M420.3 78.7C420.3 83.4 416.5 87.2 411.8 87.2C407.1 87.2 403.3 83.4 403.3 78.7C403.3 74 407.1 70.2 411.8 70.2C416.5 70.2 420.3 74 420.3 78.7M386.4 78.7C386.4 83.4 382.6 87.2 377.9 87.2C373.2 87.2 369.4 83.4 369.4 78.7C369.4 74 373.2 70.2 377.9 70.2C382.6 70.2 386.4 74 386.4 78.7M352.4 78.7C352.4 83.4 348.6 87.2 343.9 87.2C339.2 87.2 335.4 83.4 335.4 78.7C335.4 74 339.2 70.2 343.9 70.2C348.6 70.2 352.4 74 352.4 78.7M318.4 78.7C318.4 83.4 314.6 87.2 309.9 87.2C305.2 87.2 301.4 83.4 301.4 78.7C301.4 74 305.2 70.2 309.9 70.2C314.6 70.2 318.4 74 318.4 78.7M284.4 78.7C284.4 83.4 280.6 87.2 275.9 87.2C271.2 87.2 267.4 83.4 267.4 78.7C267.4 74 271.2 70.2 275.9 70.2C280.6 70.2 284.4 74 284.4 78.7M250.3 78.7C250.3 83.4 246.5 87.2 241.8 87.2C237.1 87.2 233.3 83.4 233.3 78.7C233.3 74 237.1 70.2 241.8 70.2C246.5 70.2 250.3 74 250.3 78.7" id="bwylf5d2N"></path><path d="M36.6 53.3C36.18 53.3 32.82 53.3 32.4 53.3C31.6 53.3 31 52.6 31 51.8C31 50.39 31 43.36 31 30.7L7.1 30.7C7.1 43.36 7.1 50.39 7.1 51.8C7.1 52.6 6.5 53.2 5.7 53.3C5.29 53.3 2.01 53.3 1.6 53.3C0.7 53.3 0 52.6 0 51.8C0 47.15 0 9.95 0 5.3C0 4.4 0.7 3.8 1.5 3.8C1.92 3.8 5.28 3.8 5.7 3.8C6.5 3.8 7.2 4.5 7.2 5.2C7.2 6.48 7.2 12.88 7.2 24.4L31 24.4C31 12.82 31 6.39 31 5.1C31 4.3 31.7 3.7 32.5 3.7C32.91 3.7 36.19 3.7 36.6 3.7C37.5 3.7 38.2 4.4 38.2 5.2C38.2 8.31 38.2 23.84 38.2 51.8L38.1 51.8L38.1 51.8C37.63 52.8 37.13 53.3 36.6 53.3ZM91.8 53.2C91 53.2 90.3 52.5 90.3 51.7C90.3 46.68 90.3 6.52 90.3 1.5C90.3 0.7 91 0 91.8 0C92.18 0 95.22 0 95.6 0C96.4 0 97.1 0.7 97.1 1.5C97.1 4.95 97.1 22.18 97.1 53.2L91.9 53.2L91.9 53.2C91.84 53.2 91.81 53.2 91.8 53.2ZM107.2 53.2C106.4 53.2 105.7 52.5 105.7 51.7C105.7 48.38 105.7 21.82 105.7 18.5C105.7 17.7 106.4 17 107.2 17C107.58 17 110.62 17 111 17C111.8 17 112.5 17.7 112.5 18.5C112.5 20.81 112.5 32.38 112.5 53.2L107.3 53.2L107.3 53.2C107.24 53.2 107.21 53.2 107.2 53.2ZM112.8 7.5C112.8 8.3 112.1 8.9 111.3 8.9C110.89 8.9 108.86 8.9 105.2 8.9C105.2 5.24 105.2 3.21 105.2 2.8C105.2 2 105.9 1.3 106.7 1.3C107.11 1.3 109.14 1.3 112.8 1.3L112.8 1.4L112.8 1.4C112.8 5.06 112.8 7.09 112.8 7.5ZM64.8 48.7C72.7 48.7 76.1 41.6 76.1 35.2C76.1 28.3 71.9 21.7 64.8 21.7C57.6 21.6 53.4 28.3 53.4 35.2C53.4 35.2 53.4 35.2 53.4 35.2C55.73 44.2 59.53 48.7 64.8 48.7ZM64.8 16.3C75.9 16.3 83.3 24.2 83.3 35.2C83.3 45.5 75.7 54.1 64.8 54.1C53.8 54.1 46.3 45.5 46.3 35.2C46.3 24.2 53.7 16.3 64.8 16.3ZM189.4 53.3C189.09 53.3 186.61 53.3 186.3 53.3C185.4 53.3 184.7 52.7 184.7 51.8C184.7 51.59 184.7 50.52 184.7 48.6C184.64 48.6 184.61 48.6 184.6 48.6C183 50.8 179.5 54.1 173.3 54.1C165.5 54.1 160 50.7 160 42.8C160 33.7 170 30.9 176.9 30.9C179.5 30.9 181.4 30.9 184 31C184 24.8 181.7 21.6 175 21.6C172.1 21.6 169 22.4 166.5 23.9C166.3 24 166 24.1 165.7 24.1C164.9 24.1 164.3 23.5 164.2 22.7C164.18 22.44 164.02 20.36 164 20.1C164 19.8 164.1 19.5 164.4 19.4C167.7 17.5 171.5 16.2 176 16.2C186.4 16.2 190.6 21.3 190.6 31.2C190.6 32.7 190.6 44.7 190.6 46.2C190.7 48.8 190.8 50.5 190.9 51.8C190.9 52.6 190.2 53.3 189.4 53.3ZM184 36C181.42 35.94 179.99 35.91 179.7 35.9C176.1 35.9 167.1 36.5 167.1 42.8C167.1 46.6 170.8 48.7 173.9 48.7C180.5 48.7 184 44.6 184 39.2C184 39.2 184 39.2 184 39.2L184 36ZM146.5 48.1C146.44 48.1 146.41 48.1 146.4 48.1C144.6 50.8 140.5 54.1 134 54.1C123 54.1 118.4 44.4 118.4 34.5C118.4 24.8 123.5 16.2 134.1 16.2C140.4 16.2 144.1 18.7 146.2 22C146.21 22 146.24 22 146.3 22C146.3 9.7 146.3 2.87 146.3 1.5C146.3 0.7 146.9 0 147.7 0C148.08 0 151.12 0 151.5 0C152.3 0 153 0.6 153 1.5C153 6.52 153 46.68 153 51.7C153 52.5 152.4 53.1 151.6 53.2C151.24 53.2 148.36 53.2 148 53.2C147.2 53.2 146.5 52.5 146.5 51.7C146.5 51.22 146.5 50.02 146.5 48.1ZM135.6 48.7C143.2 48.7 146.3 41.3 146.3 35.2C146.3 28.5 142.8 21.6 135.5 21.6C128.2 21.6 125.3 28.4 125.5 35C125.5 35 125.5 35 125.5 35C127.43 44.13 130.8 48.7 135.6 48.7ZM194.8 18.1C194.74 17.92 194.71 17.82 194.7 17.8C194.7 17.4 195 17.1 195.5 17.1C196.02 17.1 200.18 17.1 200.7 17.1C201.3 17.1 201.9 17.5 202.1 18.1C202.73 20.03 205.9 29.66 211.6 47L211.7 47L221.3 18.2C221.3 18.14 221.3 18.11 221.3 18.1C221.5 17.6 222 17.2 222.6 17.2C223.07 17.2 226.83 17.2 227.3 17.2C227.7 17.2 228.1 17.5 228.1 17.9C228.1 17.91 228.1 17.98 228.1 18.1L215.7 52.2L207.7 75.3C207.64 75.48 207.61 75.58 207.6 75.6C207.3 75.9 206.9 76 206.5 75.7C206.1 75.38 202.9 72.82 202.5 72.5C201.9 72 201.7 71.4 202 70.8C202.61 69.22 207.49 56.58 208.1 55C208.2 54.6 207.2 52 206.8 50.8C205.2 46.44 201.2 35.54 194.8 18.1ZM270 52.7C266.4 53.9 262.3 54.1 259.6 54.1C243.8 54.1 233.4 44 233.4 28.3C233.4 13.1 244.5 2.9 259.7 2.9C263.2 2.9 266.6 3.4 269.8 4.6C269.81 4.6 269.89 4.6 269.9 4.6C270.4 4.8 270.8 5.3 270.8 5.9C270.76 6.38 270.44 10.22 270.4 10.7C270.4 11.1 270 11.4 269.7 11.4C269.6 11.4 269.5 11.4 269.4 11.3C266.5 9.8 263.3 9.1 260.1 9.1C248.6 9.1 241 17.3 241 28.4C241 40 249.4 47.8 259.8 47.8C262.9 47.8 267 47.1 269.7 45.9C269.73 45.89 269.97 45.81 270 45.8C270.4 45.8 270.7 46.1 270.7 46.6C270.71 46.91 270.78 48.48 270.9 51.3C270.63 52.1 270.33 52.57 270 52.7ZM309.8 53.2C309.42 53.2 306.38 53.2 306 53.2C305.2 53.2 304.5 52.5 304.5 51.7C304.5 49.98 304.5 36.22 304.5 34.5C304.5 26.1 302.6 22 296.8 21.6C289.2 21.6 285.7 27.7 285.7 36.5C285.7 38.03 285.7 50.27 285.7 51.8C285.7 52.6 285.1 53.2 284.3 53.3C283.92 53.3 280.88 53.3 280.5 53.3C279.7 53.3 279 52.6 279 51.8C279 46.78 279 6.62 279 1.6C279 0.7 279.7 0 280.5 0C280.88 0 283.92 0 284.3 0C285.1 0 285.8 0.7 285.8 1.5C285.8 2.88 285.8 9.78 285.8 22.2C285.86 22.2 285.89 22.2 285.9 22.2C288.3 18.4 292.5 16.2 297.6 16.2C307 16.2 311.2 22 311.2 31.7C311.2 33.03 311.2 39.7 311.2 51.7L311.3 51.7L311.3 51.7C310.83 52.7 310.33 53.2 309.8 53.2ZM381.7 53.1C379.2 54 376.6 54.1 374.5 54.1C363.5 54.1 356 45.5 356 35.2C356 24.2 363.4 16.3 374.5 16.3C376.7 16.3 379.4 16.7 381.4 17.3C382.1 17.5 382.5 18 382.5 18.7C382.5 18.71 382.5 18.74 382.5 18.8C382.32 20.84 382.22 21.97 382.2 22.2C382.2 22.6 381.9 22.9 381.4 22.9C381.38 22.9 381.22 22.9 381.2 22.9C378.9 22.1 376.7 21.7 374.8 21.7C367.3 21.7 363.1 28.4 363.1 35.2C363.1 41.7 366.6 48.7 375.2 48.7C377.1 48.7 379.5 48.2 381.4 47.2C381.5 47.1 381.6 47.1 381.8 47.1C382.2 47.1 382.5 47.4 382.5 47.8C382.52 48.05 382.62 49.32 382.8 51.6C382.47 52.47 382.1 52.97 381.7 53.1ZM411.3 52.7C410.25 51.49 404.98 45.46 395.5 34.6C395.5 44.86 395.5 50.56 395.5 51.7C395.5 52.5 394.8 53.2 394 53.2C393.63 53.2 390.67 53.2 390.3 53.2C389.5 53.2 388.8 52.5 388.8 51.7C388.8 46.68 388.8 6.52 388.8 1.5C388.8 0.7 389.5 0 390.3 0C390.67 0 393.63 0 394 0C394.9 0 395.5 0.7 395.5 1.5C395.5 3.51 395.5 13.58 395.5 31.7C403.96 23.24 408.66 18.54 409.6 17.6C409.9 17.3 410.3 17.1 410.7 17.1C411.37 17.1 416.73 17.1 417.4 17.1C417.8 17.1 418.1 17.4 418.1 17.9C418.1 18.1 418 18.3 417.9 18.4C416.86 19.39 411.66 24.32 402.3 33.2C412.98 44.48 418.91 50.75 420.1 52C420.3 52.1 420.4 52.3 420.4 52.6C420.4 53 420.1 53.3 419.7 53.3C419.22 53.29 416.82 53.26 412.5 53.2L412.5 53.2C411.9 53.07 411.5 52.9 411.3 52.7ZM347.9 52.1C345.5 53 342.6 54.1 337.3 54.1C324.4 54.1 318.5 46.3 318.5 34.5C318.5 23.8 325.3 16.2 335.6 16.2C347.4 16.2 351.5 24.6 351.6 35.9C351.6 36.3 351.3 36.7 350.9 36.7C348.38 36.7 328.22 36.7 325.7 36.7C325.7 43.9 331.3 48.8 337.7 48.8C341.4 48.8 345.5 47.2 347.8 45.9C347.9 45.8 348 45.8 348.2 45.8C348.6 45.8 349 46.1 349 46.5C349 46.78 349 48.18 349 50.7L348.8 50.7L348.8 50.7C348.53 51.5 348.23 51.97 347.9 52.1ZM344.4 31.7C344.4 26.2 341.1 21.6 335.3 21.6C328.8 21.6 326.1 27 325.6 31.7C325.6 31.7 325.6 31.7 325.6 31.7C336.88 31.7 343.15 31.7 344.4 31.7Z" id="av9uNly54"></path></defs><g><g><g><use xlink:href="#bwylf5d2N" opacity="1" fill="#fad73c" fill-opacity="1"></use><g><use xlink:href="#bwylf5d2N" opacity="1" fill-opacity="0" stroke="#000000" stroke-width="1" stroke-opacity="0"></use></g></g><g><use xlink:href="#av9uNly54" opacity="1" fill="#47b3ec" fill-opacity="1"></use><g><use xlink:href="#av9uNly54" opacity="1" fill-opacity="0" stroke="#000000" stroke-width="1" stroke-opacity="0"></use></g></g></g></g></svg>